<?xml version="1.0" encoding="utf-8"?>
<!-- Generator: Adobe Illustrator 19.2.1, SVG Export Plug-In . SVG Version: 6.00 Build 0)  -->
<svg version="1.1" id="Layer_1" xmlns="http://www.w3.org/2000/svg" xmlns:xlink="http://www.w3.org/1999/xlink" x="0px" y="0px"
	 viewBox="0 0 260.3 19.6" style="enable-background:new 0 0 260.3 19.6;" xml:space="preserve">
<style type="text/css">
	.st0{fill:#2885AE;}
	.st1{fill:#39B3D2;}
	.st2{fill:#404041;}
</style>
<g>
	<title>predixdev_logo</title>
	<g>
		<polygon class="st0" points="31.6,2.8 31.6,16.3 43.2,16.3 43.2,13.9 34.5,13.9 34.5,10.8 41.7,10.8 41.7,8.3 34.5,8.3 34.5,5.2 
			43.2,5.2 43.2,2.8 		"/>
		<g>
			<path class="st0" d="M50.1,13.8h2.2c1.6,0,2.9-0.5,3.7-1.3s1.2-1.9,1.1-3.1c-0.1-2-1.4-4.2-4.8-4.2h-2.2V13.8L50.1,13.8z
				 M47.3,16.3V2.8h5.1c2.4,0,4.4,0.7,5.8,2.1C59.4,6,60,7.7,60.1,9.5c0,1.8-0.6,3.5-1.8,4.7c-1.4,1.4-3.4,2.1-5.9,2.1H47.3
				L47.3,16.3z"/>
		</g>
		<polygon class="st0" points="63.6,16.3 66.5,16.3 66.5,2.8 63.6,2.8 63.6,9.5 		"/>
		<path class="st0" d="M6.3,2.8c-0.7,0-6.3,0-6.3,0v13.5h2.9v-4.2h3.4c3.9,0,5.7-2.4,5.7-4.7S10.2,2.8,6.3,2.8z M6.3,9.7H2.9V5.2
			h3.4c1.9,0,2.8,0.9,2.8,2.1S8.2,9.7,6.3,9.7z"/>
		<path class="st0" d="M27.6,16.3L24,11.8c2.4-0.7,3.6-2.6,3.6-4.5c0-2.3-1.8-4.5-5.7-4.5c-0.7,0-6.3,0-6.3,0v13.5h2.9v-4.2H21
			l3.2,4.2H27.6L27.6,16.3z M18.4,5.2h3.4c1.9,0,2.8,0.9,2.8,2.1s-0.9,2.3-2.8,2.3h-3.4V5.2z"/>
		<g>
			<polygon class="st0" points="78.7,9.1 83.5,2.8 80.1,2.8 76.6,7.5 73.1,2.8 69.7,2.8 74.6,9.1 			"/>
			<polygon class="st1" points="74.6,10 69.7,16.3 73.1,16.3 76.6,11.6 80.1,16.3 83.5,16.3 78.7,10 			"/>
		</g>
	</g>
	<g>
		<path class="st2" d="M93.3,16.2c-0.3,0-0.4-0.1-0.4-0.4V3.6c0-0.3,0.1-0.4,0.4-0.4h3.6c4.5,0,6.2,3.2,6.2,6.5s-1.7,6.5-6.2,6.5
			H93.3z M94.6,4.6v10.3h2.2c3.3,0,4.7-2.1,4.7-5.2s-1.4-5.2-4.7-5.2L94.6,4.6L94.6,4.6z"/>
		<path class="st2" d="M113.8,11.7c0,0.2-0.1,0.3-0.3,0.3h-6.4c0.1,1.7,0.9,3.1,2.9,3.1c0.8,0,1.6-0.2,2.3-0.7
			c0.2-0.2,0.3-0.1,0.5,0.1l0.3,0.5c0.1,0.2,0.1,0.4-0.1,0.5c-0.8,0.6-1.8,0.9-3,0.9c-3.2,0-4.5-2.4-4.5-4.9c0-2.6,1.4-4.9,4.2-4.9
			c3,0,4.1,2.6,4.1,4.8V11.7z M109.7,7.8c-1.6,0-2.5,1.3-2.6,3.1h5.2C112.2,9.2,111.4,7.8,109.7,7.8z"/>
		<path class="st2" d="M119.3,16.2c-0.3,0-0.4-0.1-0.5-0.3c-1.2-2.1-2.5-5.5-3.2-8.5c0-0.1-0.1-0.3-0.1-0.4s0.1-0.2,0.3-0.2h0.9
			c0.3,0,0.4,0.1,0.4,0.3c0.5,2.5,1.5,5.5,2.5,7.4c1-1.9,2-4.9,2.6-7.5c0-0.2,0.1-0.3,0.4-0.3h0.7c0.2,0,0.3,0.1,0.3,0.2
			s0,0.2-0.1,0.4c-0.6,3-2,6.4-3.2,8.5c-0.1,0.2-0.3,0.3-0.5,0.3h-0.5V16.2z"/>
		<path class="st2" d="M133.6,11.7c0,0.2-0.1,0.3-0.3,0.3h-6.4c0.1,1.7,0.9,3.1,2.9,3.1c0.8,0,1.6-0.2,2.3-0.7
			c0.2-0.2,0.3-0.1,0.5,0.1l0.3,0.5c0.1,0.2,0.1,0.4-0.1,0.5c-0.8,0.6-1.8,0.9-3,0.9c-3.2,0-4.5-2.4-4.5-4.9c0-2.6,1.4-4.9,4.2-4.9
			c3,0,4.1,2.6,4.1,4.8V11.7z M129.5,7.8c-1.6,0-2.5,1.3-2.6,3.1h5.2C131.9,9.2,131.1,7.8,129.5,7.8z"/>
		<path class="st2" d="M136.7,16.2c-0.3,0-0.4-0.1-0.4-0.4V2.5c0-0.3,0.1-0.4,0.4-0.4h0.8c0.3,0,0.4,0.1,0.4,0.4v13.4
			c0,0.3-0.1,0.4-0.4,0.4L136.7,16.2L136.7,16.2z"/>
		<path class="st2" d="M144.9,16.4c-3.1,0-4.3-2.4-4.3-4.9s1.3-4.9,4.3-4.9c3.1,0,4.3,2.4,4.3,4.9S147.9,16.4,144.9,16.4z
			 M144.9,15.2c2,0,2.7-1.7,2.7-3.7s-0.8-3.7-2.7-3.7s-2.7,1.7-2.7,3.7S143,15.2,144.9,15.2z"/>
		<path class="st2" d="M152.4,20.1c-0.3,0-0.4-0.1-0.4-0.4V7.2c0-0.3,0.1-0.4,0.4-0.4h0.7c0.3,0,0.4,0.1,0.4,0.4V8
			c0.5-0.7,1.4-1.3,2.7-1.3c2.4,0,4,1.8,4,4.9s-1.5,4.9-4,4.9c-1.3,0-2.2-0.5-2.6-1.2v4.6c0,0.3-0.1,0.4-0.4,0.4h-0.8V20.1z
			 M155.9,15.2c1.6,0,2.7-1.2,2.7-3.7s-1.1-3.7-2.7-3.7c-0.9,0-1.7,0.4-2.3,1.3v4.7C154.1,14.8,155,15.2,155.9,15.2z"/>
		<path class="st2" d="M170.5,11.7c0,0.2-0.1,0.3-0.3,0.3h-6.4c0.1,1.7,0.9,3.1,2.9,3.1c0.8,0,1.6-0.2,2.3-0.7
			c0.2-0.2,0.3-0.1,0.5,0.1l0.3,0.5c0.1,0.2,0.1,0.4-0.1,0.5c-0.8,0.6-1.8,0.9-3,0.9c-3.2,0-4.5-2.4-4.5-4.9c0-2.6,1.4-4.9,4.2-4.9
			c3,0,4.1,2.6,4.1,4.8V11.7z M166.4,7.8c-1.6,0-2.5,1.3-2.6,3.1h5.2C168.9,9.2,168.1,7.8,166.4,7.8z"/>
		<path class="st2" d="M173.6,16.2c-0.3,0-0.4-0.1-0.4-0.4V7.2c0-0.3,0.1-0.4,0.4-0.4h0.7c0.3,0,0.4,0.1,0.4,0.4V8
			c0.5-0.7,1.3-1.4,2.7-1.4c0.3,0,0.5,0,0.8,0.1c0.2,0.1,0.3,0.2,0.3,0.4l-0.2,0.7c-0.1,0.3-0.2,0.3-0.4,0.3C177.6,8,177.3,8,177,8
			c-0.7,0-1.6,0.3-2.3,1.1v6.7c0,0.3-0.1,0.4-0.4,0.4H173.6z"/>
		<path class="st2" d="M185.2,16.2c-0.3,0-0.4-0.1-0.4-0.4V3.6c0-0.3,0.1-0.4,0.4-0.4h1.1c0.3,0,0.4,0.1,0.5,0.3l6.5,10.6V3.6
			c0-0.3,0.1-0.4,0.4-0.4h0.8c0.3,0,0.4,0.1,0.4,0.4v12.3c0,0.3-0.1,0.4-0.4,0.4h-1.1c-0.3,0-0.4-0.1-0.5-0.3l-6.5-10.6V16
			c0,0.3-0.1,0.4-0.4,0.4h-0.8V16.2z"/>
		<path class="st2" d="M205.9,11.7c0,0.2-0.1,0.3-0.3,0.3h-6.4c0.1,1.7,0.9,3.1,2.9,3.1c0.8,0,1.6-0.2,2.3-0.7
			c0.2-0.2,0.3-0.1,0.5,0.1l0.3,0.5c0.1,0.2,0.1,0.4-0.1,0.5c-0.8,0.6-1.8,0.9-3,0.9c-3.2,0-4.5-2.4-4.5-4.9c0-2.6,1.4-4.9,4.2-4.9
			c3,0,4.1,2.6,4.1,4.8V11.7z M201.8,7.8c-1.6,0-2.5,1.3-2.6,3.1h5.2C204.2,9.2,203.4,7.8,201.8,7.8z"/>
		<path class="st2" d="M207.7,8c-0.3,0-0.4-0.1-0.4-0.4V7.2c0-0.3,0.1-0.4,0.4-0.4h1.3V4.6c0-0.3,0.1-0.4,0.4-0.4h0.8
			c0.3,0,0.4,0.1,0.4,0.4v2.2h2.7c0.3,0,0.4,0.1,0.4,0.4v0.5c0,0.3-0.1,0.4-0.4,0.4h-2.7v5.5c0,1,0.3,1.6,1.2,1.6
			c0.4,0,0.8-0.1,1.1-0.3c0.2-0.1,0.3-0.1,0.4,0.1l0.2,0.5c0.1,0.2,0,0.4-0.2,0.5c-0.5,0.3-1.2,0.4-1.8,0.4c-1.6,0-2.6-0.7-2.6-2.8
			V8H207.7z"/>
		<path class="st2" d="M228.6,6.8c0.2,0,0.3,0.1,0.3,0.3c0,0.1,0,0.2,0,0.3c-0.6,3-1.7,6.5-2.7,8.6c-0.1,0.2-0.3,0.3-0.5,0.3H225
			c-0.3,0-0.4-0.1-0.5-0.3c-1.1-2.6-1.8-4.7-2.2-6.8c-0.4,2-1.1,4.2-2.2,6.8c-0.1,0.2-0.2,0.3-0.5,0.3h-0.8c-0.3,0-0.4-0.1-0.5-0.3
			c-1-2.1-2.2-5.6-2.7-8.6c0-0.1,0-0.2,0-0.3c0-0.2,0.1-0.3,0.3-0.3h0.8c0.3,0,0.4,0.1,0.4,0.4c0.5,2.5,1.4,5.6,2.2,7.5
			c0.9-1.9,1.8-5,2.3-7.5c0-0.3,0.2-0.4,0.4-0.4h0.7c0.3,0,0.4,0.1,0.4,0.4c0.5,2.5,1.4,5.6,2.3,7.5c0.8-1.9,1.7-5,2.2-7.5
			c0-0.3,0.2-0.4,0.4-0.4C228,6.8,228.6,6.8,228.6,6.8z"/>
		<path class="st2" d="M234.9,16.4c-3.1,0-4.3-2.4-4.3-4.9s1.3-4.9,4.3-4.9c3.1,0,4.3,2.4,4.3,4.9S238,16.4,234.9,16.4z M234.9,15.2
			c2,0,2.7-1.7,2.7-3.7s-0.8-3.7-2.7-3.7s-2.7,1.7-2.7,3.7S233,15.2,234.9,15.2z"/>
		<path class="st2" d="M242.4,16.2c-0.3,0-0.4-0.1-0.4-0.4V7.2c0-0.3,0.1-0.4,0.4-0.4h0.7c0.3,0,0.4,0.1,0.4,0.4V8
			c0.5-0.7,1.3-1.4,2.7-1.4c0.3,0,0.5,0,0.8,0.1c0.2,0.1,0.3,0.2,0.3,0.4l-0.2,0.7c-0.1,0.3-0.2,0.3-0.4,0.3
			C246.4,8,246.1,8,245.8,8c-0.7,0-1.6,0.3-2.3,1.1v6.7c0,0.3-0.1,0.4-0.4,0.4H242.4z"/>
		<path class="st2" d="M255.7,16.2c-0.3,0-0.4-0.1-0.5-0.3c-0.7-1.4-1.9-3-3.1-4.2c-0.4,0.3-0.8,0.6-1.2,0.8v3.4
			c0,0.3-0.1,0.4-0.4,0.4h-0.8c-0.3,0-0.4-0.1-0.4-0.4V2.5c0-0.3,0.1-0.4,0.4-0.4h0.8c0.3,0,0.4,0.1,0.4,0.4V11
			c1.4-1,2.9-2.7,3.8-3.9c0.2-0.2,0.3-0.3,0.6-0.3h1c0.2,0,0.3,0.1,0.2,0.3c-0.8,1.3-2,2.6-3.3,3.8c1.5,1.4,3,3.4,3.8,5
			c0.1,0.2,0,0.3-0.2,0.3C256.8,16.2,255.7,16.2,255.7,16.2z"/>
	</g>
</g>
</svg>
